<svg width="24" height="24" viewBox="0 0 24 24" fill="none" xmlns="http://www.w3.org/2000/svg">
<path d="M11.1052 7.56037V0C5.17294 0.436021 0.43602 5.17295 0 11.1053H7.56035C7.91772 9.32224 9.32222 7.91749 11.1055 7.56011L11.1052 7.56037Z" fill="#B78347"/>
<path d="M16.4394 11.1053H23.9998C23.5637 5.17295 18.8268 0.436021 12.8945 0V7.56037C14.6775 7.91775 16.0823 9.32225 16.4397 11.1055L16.4394 11.1053Z" fill="#B78347"/>
<path d="M7.56035 12.8947H0C0.43602 18.827 5.17294 23.5639 11.1052 24V16.4396C9.32222 16.0822 7.91746 14.6777 7.56009 12.8944L7.56035 12.8947Z" fill="#B78347"/>
<path d="M12.8948 16.4394V23.9998C18.8271 23.5638 23.564 18.8268 24 12.8945H16.4397C16.0823 14.6776 14.6778 16.0823 12.8945 16.4397L12.8948 16.4394Z" fill="#B78347"/>
</svg>
