<svg width="103" height="35" viewBox="0 0 103 35" fill="none" xmlns="http://www.w3.org/2000/svg">
<path d="M72.728 19.4978C72.728 16.7787 71.3097 14.5605 69.9624 13.3798C70.8133 12.1634 71.487 10.2314 71.487 8.76449C71.487 4.29227 68.3314 1.07227 63.2256 1.07227H50.1067V27.9056H63.6511C69.2532 27.9056 72.728 24.4352 72.728 19.4978ZM61.5592 8.72871C62.3747 8.72871 62.8356 9.33693 62.8356 10.0883C62.8356 10.8396 62.3747 11.412 61.5237 11.412H59.1481V8.72871H61.5592ZM62.3392 17.2438C63.4029 17.2438 63.8993 17.9594 63.8993 18.818C63.8993 19.6767 63.4029 20.3565 62.3037 20.3565H59.1481V17.2438H62.3392Z" fill="white"/>
<path d="M83.9726 27.9056V1.07227H74.2575V27.9056H83.9726Z" fill="white"/>
<path d="M99.2772 27.9056V8.76449H103V1.07227H85.8037V8.76449H89.5621V27.9056H99.2772Z" fill="white"/>
<path d="M28.2131 30.953V32.0268H29.573V32.5662H28.2131V34.0439H27.5357V30.4161H29.8238V30.953H28.2131ZM31.6072 34.0439H30.9298V30.4161H31.6072V34.0439ZM36.0298 30.4161V34.0439H35.6835C35.63 34.0439 35.5848 34.0356 35.548 34.0189C35.5129 34.0005 35.4786 33.9704 35.4452 33.9285L33.551 31.51C33.561 31.6204 33.566 31.7224 33.566 31.816V34.0439H32.9714V30.4161H33.3252C33.3536 30.4161 33.3779 30.4178 33.3979 30.4211C33.4197 30.4228 33.4381 30.4278 33.4531 30.4362C33.4698 30.4428 33.4857 30.4537 33.5008 30.4688C33.5158 30.4822 33.5326 30.5006 33.551 30.524L35.4527 32.9526C35.4477 32.894 35.4435 32.8363 35.4402 32.7795C35.4368 32.7226 35.4351 32.6699 35.4351 32.6214V30.4161H36.0298ZM39.3064 32.6741L38.8648 31.4673C38.8431 31.4138 38.8205 31.3502 38.7971 31.2766C38.7737 31.203 38.7503 31.1236 38.7269 31.0383C38.7051 31.1236 38.6825 31.2039 38.6591 31.2791C38.6357 31.3527 38.6131 31.4171 38.5914 31.4723L38.1523 32.6741H39.3064ZM40.4981 34.0439H39.9763C39.9177 34.0439 39.8701 34.0297 39.8333 34.0013C39.7965 33.9712 39.7689 33.9344 39.7505 33.8909L39.4795 33.1508H37.9767L37.7057 33.8909C37.6924 33.9294 37.6664 33.9645 37.628 33.9963C37.5895 34.0281 37.5418 34.0439 37.485 34.0439H36.9581L38.3856 30.4161H39.0731L40.4981 34.0439ZM44.4839 30.4161V34.0439H44.1377C44.0842 34.0439 44.039 34.0356 44.0022 34.0189C43.9671 34.0005 43.9328 33.9704 43.8994 33.9285L42.0052 31.51C42.0152 31.6204 42.0202 31.7224 42.0202 31.816V34.0439H41.4256V30.4161H41.7794C41.8078 30.4161 41.832 30.4178 41.8521 30.4211C41.8739 30.4228 41.8923 30.4278 41.9073 30.4362C41.924 30.4428 41.9399 30.4537 41.955 30.4688C41.97 30.4822 41.9868 30.5006 42.0052 30.524L43.9069 32.9526C43.9019 32.894 43.8977 32.8363 43.8944 32.7795C43.891 32.7226 43.8893 32.6699 43.8893 32.6214V30.4161H44.4839ZM48.3351 33.1884C48.3719 33.1884 48.4045 33.2026 48.433 33.2311L48.6989 33.5196C48.5517 33.7019 48.3703 33.8416 48.1545 33.9386C47.9404 34.0356 47.6828 34.0841 47.3818 34.0841C47.1125 34.0841 46.8699 34.0381 46.6542 33.9461C46.4401 33.8541 46.2569 33.7262 46.1047 33.5622C45.9525 33.3983 45.8354 33.2026 45.7535 32.9752C45.6732 32.7477 45.6331 32.4993 45.6331 32.23C45.6331 31.9574 45.6765 31.7082 45.7635 31.4824C45.8505 31.2549 45.9726 31.0592 46.1298 30.8953C46.2887 30.7314 46.4777 30.6043 46.6968 30.5139C46.9159 30.4219 47.1585 30.3759 47.4244 30.3759C47.6887 30.3759 47.9228 30.4194 48.1269 30.5064C48.3326 30.5934 48.5074 30.7071 48.6513 30.8476L48.4255 31.1612C48.4121 31.1813 48.3945 31.1989 48.3728 31.2139C48.3527 31.229 48.3243 31.2365 48.2875 31.2365C48.2624 31.2365 48.2365 31.2298 48.2097 31.2164C48.1829 31.2014 48.1537 31.1838 48.1219 31.1637C48.0901 31.142 48.0533 31.1186 48.0115 31.0935C47.9697 31.0684 47.9212 31.0458 47.866 31.0257C47.8108 31.004 47.7464 30.9864 47.6728 30.9731C47.6009 30.958 47.5172 30.9505 47.4219 30.9505C47.2597 30.9505 47.1108 30.9797 46.9753 31.0383C46.8415 31.0952 46.7261 31.1788 46.6291 31.2892C46.5321 31.3979 46.4568 31.5317 46.4033 31.6906C46.3498 31.8478 46.323 32.0276 46.323 32.23C46.323 32.4341 46.3514 32.6155 46.4083 32.7744C46.4668 32.9333 46.5455 33.0671 46.6441 33.1759C46.7428 33.2846 46.8591 33.3682 46.9929 33.4268C47.1267 33.4836 47.2705 33.5121 47.4244 33.5121C47.5164 33.5121 47.5992 33.507 47.6728 33.497C47.7481 33.487 47.8166 33.4711 47.8785 33.4493C47.9421 33.4276 48.0015 33.4 48.0566 33.3665C48.1135 33.3314 48.1695 33.2888 48.2247 33.2386C48.2415 33.2235 48.259 33.2118 48.2774 33.2035C48.2958 33.1934 48.3151 33.1884 48.3351 33.1884ZM50.3906 34.0439H49.7132V30.4161H50.3906V34.0439ZM53.6716 32.6741L53.23 31.4673C53.2083 31.4138 53.1857 31.3502 53.1623 31.2766C53.1389 31.203 53.1155 31.1236 53.092 31.0383C53.0703 31.1236 53.0477 31.2039 53.0243 31.2791C53.0009 31.3527 52.9783 31.4171 52.9566 31.4723L52.5175 32.6741H53.6716ZM54.8633 34.0439H54.3415C54.2829 34.0439 54.2353 34.0297 54.1985 34.0013C54.1617 33.9712 54.1341 33.9344 54.1157 33.8909L53.8447 33.1508H52.3419L52.0709 33.8909C52.0575 33.9294 52.0316 33.9645 51.9931 33.9963C51.9547 34.0281 51.907 34.0439 51.8501 34.0439H51.3233L52.7508 30.4161H53.4383L54.8633 34.0439ZM57.9158 33.487V34.0439H55.7908V30.4161H56.4657V33.487H57.9158ZM62.9519 30.9705H61.858V34.0439H61.1831V30.9705H60.0893V30.4161H62.9519V30.9705ZM64.656 30.953V31.9591H65.9255V32.4784H64.656V33.5045H66.2667V34.0439H63.9786V30.4161H66.2667V30.953H64.656ZM69.8297 33.1884C69.8665 33.1884 69.8991 33.2026 69.9275 33.2311L70.1935 33.5196C70.0463 33.7019 69.8648 33.8416 69.6491 33.9386C69.435 34.0356 69.1774 34.0841 68.8763 34.0841C68.607 34.0841 68.3645 34.0381 68.1487 33.9461C67.9346 33.8541 67.7515 33.7262 67.5993 33.5622C67.4471 33.3983 67.33 33.2026 67.248 32.9752C67.1678 32.7477 67.1276 32.4993 67.1276 32.23C67.1276 31.9574 67.1711 31.7082 67.2581 31.4824C67.3451 31.2549 67.4672 31.0592 67.6244 30.8953C67.7833 30.7314 67.9723 30.6043 68.1914 30.5139C68.4105 30.4219 68.653 30.3759 68.919 30.3759C69.1832 30.3759 69.4174 30.4194 69.6215 30.5064C69.8272 30.5934 70.002 30.7071 70.1458 30.8476L69.92 31.1612C69.9066 31.1813 69.8891 31.1989 69.8673 31.2139C69.8473 31.229 69.8188 31.2365 69.782 31.2365C69.7569 31.2365 69.731 31.2298 69.7043 31.2164C69.6775 31.2014 69.6482 31.1838 69.6164 31.1637C69.5847 31.142 69.5479 31.1186 69.506 31.0935C69.4642 31.0684 69.4157 31.0458 69.3605 31.0257C69.3053 31.004 69.2409 30.9864 69.1673 30.9731C69.0954 30.958 69.0118 30.9505 68.9165 30.9505C68.7542 30.9505 68.6054 30.9797 68.4699 31.0383C68.3361 31.0952 68.2207 31.1788 68.1236 31.2892C68.0266 31.3979 67.9514 31.5317 67.8978 31.6906C67.8443 31.8478 67.8176 32.0276 67.8176 32.23C67.8176 32.4341 67.846 32.6155 67.9029 32.7744C67.9614 32.9333 68.04 33.0671 68.1387 33.1759C68.2374 33.2846 68.3536 33.3682 68.4874 33.4268C68.6212 33.4836 68.7651 33.5121 68.919 33.5121C69.011 33.5121 69.0938 33.507 69.1673 33.497C69.2426 33.487 69.3112 33.4711 69.3731 33.4493C69.4366 33.4276 69.496 33.4 69.5512 33.3665C69.6081 33.3314 69.6641 33.2888 69.7193 33.2386C69.736 33.2235 69.7536 33.2118 69.772 33.2035C69.7904 33.1934 69.8096 33.1884 69.8297 33.1884ZM74.2661 30.4161V34.0439H73.5887V32.4583H71.8851V34.0439H71.2077V30.4161H71.8851V31.9766H73.5887V30.4161H74.2661ZM78.6843 30.4161V34.0439H78.3381C78.2845 34.0439 78.2394 34.0356 78.2026 34.0189C78.1675 34.0005 78.1332 33.9704 78.0997 33.9285L76.2055 31.51C76.2155 31.6204 76.2206 31.7224 76.2206 31.816V34.0439H75.6259V30.4161H75.9797C76.0081 30.4161 76.0324 30.4178 76.0525 30.4211C76.0742 30.4228 76.0926 30.4278 76.1077 30.4362C76.1244 30.4428 76.1403 30.4537 76.1553 30.4688C76.1704 30.4822 76.1871 30.5006 76.2055 30.524L78.1072 32.9526C78.1022 32.894 78.098 32.8363 78.0947 32.7795C78.0914 32.7226 78.0897 32.6699 78.0897 32.6214V30.4161H78.6843ZM83.5039 32.23C83.5039 32.496 83.4596 32.7427 83.3709 32.9701C83.284 33.1959 83.1602 33.3916 82.9996 33.5572C82.8391 33.7228 82.6459 33.8524 82.4201 33.9461C82.1943 34.0381 81.9434 34.0841 81.6674 34.0841C81.3931 34.0841 81.143 34.0381 80.9172 33.9461C80.6914 33.8524 80.4974 33.7228 80.3352 33.5572C80.1746 33.3916 80.05 33.1959 79.9614 32.9701C79.8727 32.7427 79.8284 32.496 79.8284 32.23C79.8284 31.9641 79.8727 31.7182 79.9614 31.4924C80.05 31.2649 80.1746 31.0684 80.3352 30.9028C80.4974 30.7372 80.6914 30.6084 80.9172 30.5164C81.143 30.4228 81.3931 30.3759 81.6674 30.3759C81.8514 30.3759 82.0245 30.3977 82.1867 30.4412C82.349 30.483 82.4978 30.5432 82.6333 30.6218C82.7688 30.6988 82.8901 30.7933 82.9971 30.9053C83.1058 31.0157 83.1978 31.1395 83.2731 31.2766C83.3484 31.4138 83.4052 31.5626 83.4437 31.7232C83.4838 31.8838 83.5039 32.0527 83.5039 32.23ZM82.814 32.23C82.814 32.031 82.7872 31.8528 82.7337 31.6956C82.6802 31.5367 82.6041 31.4021 82.5054 31.2917C82.4067 31.1813 82.2863 31.0968 82.1441 31.0383C82.0036 30.9797 81.8447 30.9505 81.6674 30.9505C81.4901 30.9505 81.3304 30.9797 81.1882 31.0383C81.0477 31.0968 80.9273 31.1813 80.8269 31.2917C80.7282 31.4021 80.6521 31.5367 80.5986 31.6956C80.5451 31.8528 80.5183 32.031 80.5183 32.23C80.5183 32.4291 80.5451 32.608 80.5986 32.7669C80.6521 32.9241 80.7282 33.0579 80.8269 33.1683C80.9273 33.2771 81.0477 33.3607 81.1882 33.4192C81.3304 33.4778 81.4901 33.507 81.6674 33.507C81.8447 33.507 82.0036 33.4778 82.1441 33.4192C82.2863 33.3607 82.4067 33.2771 82.5054 33.1683C82.6041 33.0579 82.6802 32.9241 82.7337 32.7669C82.7872 32.608 82.814 32.4291 82.814 32.23ZM86.7736 33.487V34.0439H84.6486V30.4161H85.3234V33.487H86.7736ZM91.1398 32.23C91.1398 32.496 91.0955 32.7427 91.0068 32.9701C90.9198 33.1959 90.7961 33.3916 90.6355 33.5572C90.4749 33.7228 90.2817 33.8524 90.0559 33.9461C89.8301 34.0381 89.5792 34.0841 89.3033 34.0841C89.029 34.0841 88.7789 34.0381 88.5531 33.9461C88.3273 33.8524 88.1333 33.7228 87.971 33.5572C87.8105 33.3916 87.6859 33.1959 87.5972 32.9701C87.5086 32.7427 87.4642 32.496 87.4642 32.23C87.4642 31.9641 87.5086 31.7182 87.5972 31.4924C87.6859 31.2649 87.8105 31.0684 87.971 30.9028C88.1333 30.7372 88.3273 30.6084 88.5531 30.5164C88.7789 30.4228 89.029 30.3759 89.3033 30.3759C89.4872 30.3759 89.6604 30.3977 89.8226 30.4412C89.9848 30.483 90.1337 30.5432 90.2692 30.6218C90.4047 30.6988 90.5259 30.7933 90.633 30.9053C90.7417 31.0157 90.8337 31.1395 90.909 31.2766C90.9842 31.4138 91.0411 31.5626 91.0796 31.7232C91.1197 31.8838 91.1398 32.0527 91.1398 32.23ZM90.4498 32.23C90.4498 32.031 90.4231 31.8528 90.3695 31.6956C90.316 31.5367 90.2399 31.4021 90.1412 31.2917C90.0426 31.1813 89.9221 31.0968 89.78 31.0383C89.6395 30.9797 89.4806 30.9505 89.3033 30.9505C89.126 30.9505 88.9662 30.9797 88.8241 31.0383C88.6836 31.0968 88.5631 31.1813 88.4628 31.2917C88.3641 31.4021 88.288 31.5367 88.2345 31.6956C88.181 31.8528 88.1542 32.031 88.1542 32.23C88.1542 32.4291 88.181 32.608 88.2345 32.7669C88.288 32.9241 88.3641 33.0579 88.4628 33.1683C88.5631 33.2771 88.6836 33.3607 88.8241 33.4192C88.9662 33.4778 89.126 33.507 89.3033 33.507C89.4806 33.507 89.6395 33.4778 89.78 33.4192C89.9221 33.3607 90.0426 33.2771 90.1412 33.1683C90.2399 33.0579 90.316 32.9241 90.3695 32.7669C90.4231 32.608 90.4498 32.4291 90.4498 32.23ZM95.275 32.225V33.6927C95.091 33.8282 94.8945 33.9277 94.6854 33.9913C94.478 34.0531 94.2556 34.0841 94.0181 34.0841C93.722 34.0841 93.4536 34.0381 93.2127 33.9461C92.9735 33.8541 92.7686 33.7262 92.598 33.5622C92.4291 33.3983 92.2986 33.2026 92.2066 32.9752C92.1146 32.7477 92.0687 32.4993 92.0687 32.23C92.0687 31.9574 92.113 31.7073 92.2016 31.4799C92.2903 31.2524 92.4157 31.0567 92.578 30.8928C92.7419 30.7289 92.9401 30.6017 93.1726 30.5114C93.4051 30.4211 93.666 30.3759 93.9553 30.3759C94.1025 30.3759 94.2397 30.3877 94.3668 30.4111C94.4956 30.4345 94.6143 30.4671 94.7231 30.5089C94.8335 30.5491 94.9338 30.5984 95.0241 30.6569C95.1145 30.7155 95.1972 30.7799 95.2725 30.8501L95.0793 31.1562C95.0492 31.2047 95.0099 31.2348 94.9614 31.2465C94.9129 31.2566 94.8602 31.244 94.8033 31.2089C94.7482 31.1771 94.693 31.1453 94.6378 31.1136C94.5826 31.0818 94.5207 31.0542 94.4521 31.0308C94.3852 31.0073 94.3091 30.9881 94.2238 30.9731C94.1402 30.958 94.0432 30.9505 93.9328 30.9505C93.7538 30.9505 93.5916 30.9806 93.446 31.0408C93.3022 31.101 93.1793 31.1872 93.0772 31.2992C92.9752 31.4113 92.8966 31.5459 92.8414 31.7031C92.7862 31.8604 92.7586 32.036 92.7586 32.23C92.7586 32.4374 92.7879 32.6231 92.8464 32.787C92.9066 32.9492 92.9903 33.0872 93.0973 33.201C93.206 33.313 93.3365 33.3992 93.4887 33.4594C93.6409 33.5179 93.8107 33.5472 93.998 33.5472C94.1318 33.5472 94.2514 33.533 94.3568 33.5045C94.4621 33.4761 94.565 33.4376 94.6654 33.3891V32.7318H94.2087C94.1653 32.7318 94.131 32.7201 94.1059 32.6967C94.0825 32.6716 94.0708 32.6415 94.0708 32.6063V32.225H95.275ZM97.9421 32.639V34.0439H97.2697V32.639L95.9476 30.4161H96.5422C96.6007 30.4161 96.6467 30.4303 96.6802 30.4587C96.7153 30.4872 96.7445 30.5231 96.768 30.5666L97.4303 31.7784C97.4688 31.8503 97.5022 31.9181 97.5307 31.9816C97.5608 32.0452 97.5875 32.1088 97.611 32.1723C97.6327 32.1088 97.6578 32.0452 97.6862 31.9816C97.7147 31.9181 97.7473 31.8503 97.7841 31.7784L98.4439 30.5666C98.4623 30.5298 98.4899 30.4955 98.5267 30.4638C98.5635 30.432 98.6103 30.4161 98.6672 30.4161H99.2643L97.9421 32.639Z" fill="white"/>
<path fill-rule="evenodd" clip-rule="evenodd" d="M27.1318 27.9056C30.6789 24.5047 32.8903 19.6988 32.8903 14.3718C32.8903 9.16593 30.7784 4.45782 27.3718 1.07227H38.7851C45.1672 1.07227 48.6775 5.0436 48.6775 10.9469C48.6775 14.2385 47.4365 16.886 45.0963 18.4603L48.7129 27.9056H38.6078L35.9485 20.1776H34.2821V27.9056H27.1318ZM38.6787 11.1974C38.6787 9.83782 38.0759 8.69293 36.3385 8.69293H34.2821V13.7734H36.374C38.0759 13.7734 38.6787 12.5927 38.6787 11.1974Z" fill="white"/>
<path d="M13.3187 9.14936V0C6.20398 0.527661 0.522925 6.26017 0 13.4393H9.06723C9.49584 11.2815 11.1803 9.58153 13.319 9.14904L13.3187 9.14936Z" fill="#2F3F4C"/>
<path d="M19.716 13.4393H28.7832C28.2603 6.26017 22.5792 0.527662 15.4645 0V9.14936C17.6029 9.58185 19.2877 11.2815 19.7163 13.4396L19.716 13.4393Z" fill="#0063F2"/>
<path d="M9.06723 15.6048H0C0.522925 22.7839 6.20398 28.5164 13.3187 29.0441V19.8947C11.1803 19.4623 9.49553 17.7626 9.06692 15.6045L9.06723 15.6048Z" fill="#84B94A"/>
<path d="M15.4648 19.8949V29.0443C22.5795 28.5166 28.2606 22.7841 28.7835 15.605H19.7163C19.2877 17.7627 17.6032 19.4627 15.4645 19.8952L15.4648 19.8949Z" fill="#B78347"/>
</svg>
