<svg width="103" height="35" viewBox="0 0 103 35" fill="none" xmlns="http://www.w3.org/2000/svg">
<path d="M72.728 19.4978C72.728 16.7787 71.3098 14.5605 69.9624 13.3798C70.8134 12.1634 71.487 10.2314 71.487 8.76449C71.487 4.29227 68.3314 1.07227 63.2256 1.07227H50.1067V27.9056H63.6511C69.2533 27.9056 72.728 24.4352 72.728 19.4978ZM61.5592 8.72871C62.3747 8.72871 62.8356 9.33693 62.8356 10.0883C62.8356 10.8396 62.3747 11.412 61.5237 11.412H59.1481V8.72871H61.5592ZM62.3392 17.2438C63.4029 17.2438 63.8993 17.9594 63.8993 18.818C63.8993 19.6767 63.4029 20.3565 62.3038 20.3565H59.1481V17.2438H62.3392Z" fill="black"/>
<path d="M83.9726 27.9056V1.07227H74.2574V27.9056H83.9726Z" fill="black"/>
<path d="M99.2772 27.9056V8.76449H103V1.07227H85.8037V8.76449H89.5621V27.9056H99.2772Z" fill="black"/>
<path d="M28.2132 30.9532V32.027H29.573V32.5665H28.2132V34.0442H27.5358V30.4163H29.8239V30.9532H28.2132ZM31.6072 34.0442H30.9298V30.4163H31.6072V34.0442ZM36.0298 30.4163V34.0442H35.6836C35.63 34.0442 35.5849 34.0358 35.5481 34.0191C35.513 34.0007 35.4787 33.9706 35.4452 33.9288L33.551 31.5102C33.561 31.6206 33.5661 31.7226 33.5661 31.8163V34.0442H32.9714V30.4163H33.3252C33.3536 30.4163 33.3779 30.418 33.398 30.4213C33.4197 30.423 33.4381 30.428 33.4532 30.4364C33.4699 30.4431 33.4858 30.454 33.5008 30.469C33.5159 30.4824 33.5326 30.5008 33.551 30.5242L35.4527 32.9528C35.4477 32.8943 35.4435 32.8366 35.4402 32.7797C35.4369 32.7228 35.4352 32.6702 35.4352 32.6216V30.4163H36.0298ZM39.3064 32.6743L38.8649 31.4676C38.8431 31.414 38.8206 31.3505 38.7971 31.2769C38.7737 31.2033 38.7503 31.1238 38.7269 31.0385C38.7051 31.1238 38.6826 31.2041 38.6591 31.2794C38.6357 31.353 38.6132 31.4174 38.5914 31.4726L38.1523 32.6743H39.3064ZM40.4982 34.0442H39.9763C39.9178 34.0442 39.8701 34.03 39.8333 34.0015C39.7965 33.9714 39.7689 33.9346 39.7505 33.8911L39.4796 33.151H37.9767L37.7058 33.8911C37.6924 33.9296 37.6665 33.9647 37.628 33.9965C37.5895 34.0283 37.5419 34.0442 37.485 34.0442H36.9581L38.3857 30.4163H39.0731L40.4982 34.0442ZM44.484 30.4163V34.0442H44.1377C44.0842 34.0442 44.0391 34.0358 44.0023 34.0191C43.9671 34.0007 43.9329 33.9706 43.8994 33.9288L42.0052 31.5102C42.0152 31.6206 42.0202 31.7226 42.0202 31.8163V34.0442H41.4256V30.4163H41.7794C41.8078 30.4163 41.8321 30.418 41.8521 30.4213C41.8739 30.423 41.8923 30.428 41.9073 30.4364C41.9241 30.4431 41.94 30.454 41.955 30.469C41.9701 30.4824 41.9868 30.5008 42.0052 30.5242L43.9069 32.9528C43.9019 32.8943 43.8977 32.8366 43.8944 32.7797C43.891 32.7228 43.8894 32.6702 43.8894 32.6216V30.4163H44.484ZM48.3352 33.1887C48.372 33.1887 48.4046 33.2029 48.433 33.2313L48.699 33.5198C48.5518 33.7021 48.3703 33.8418 48.1545 33.9388C47.9404 34.0358 47.6829 34.0843 47.3818 34.0843C47.1125 34.0843 46.87 34.0383 46.6542 33.9463C46.4401 33.8543 46.257 33.7264 46.1048 33.5625C45.9526 33.3986 45.8355 33.2029 45.7535 32.9754C45.6732 32.7479 45.6331 32.4995 45.6331 32.2303C45.6331 31.9576 45.6766 31.7084 45.7636 31.4826C45.8505 31.2551 45.9726 31.0594 46.1298 30.8955C46.2887 30.7316 46.4777 30.6045 46.6969 30.5142C46.916 30.4222 47.1585 30.3762 47.4244 30.3762C47.6887 30.3762 47.9229 30.4197 48.1269 30.5066C48.3327 30.5936 48.5074 30.7074 48.6513 30.8479L48.4255 31.1615C48.4121 31.1815 48.3945 31.1991 48.3728 31.2142C48.3527 31.2292 48.3243 31.2367 48.2875 31.2367C48.2624 31.2367 48.2365 31.23 48.2097 31.2167C48.183 31.2016 48.1537 31.184 48.1219 31.164C48.0901 31.1422 48.0533 31.1188 48.0115 31.0937C47.9697 31.0686 47.9212 31.0461 47.866 31.026C47.8108 31.0042 47.7464 30.9867 47.6728 30.9733C47.6009 30.9582 47.5173 30.9507 47.4219 30.9507C47.2597 30.9507 47.1108 30.98 46.9753 31.0385C46.8415 31.0954 46.7261 31.179 46.6291 31.2894C46.5321 31.3981 46.4568 31.532 46.4033 31.6908C46.3498 31.8481 46.323 32.0279 46.323 32.2303C46.323 32.4343 46.3515 32.6158 46.4083 32.7747C46.4669 32.9336 46.5455 33.0674 46.6442 33.1761C46.7429 33.2848 46.8591 33.3685 46.9929 33.427C47.1267 33.4839 47.2706 33.5123 47.4244 33.5123C47.5164 33.5123 47.5992 33.5073 47.6728 33.4973C47.7481 33.4872 47.8167 33.4713 47.8785 33.4496C47.9421 33.4278 48.0015 33.4002 48.0567 33.3668C48.1135 33.3317 48.1696 33.289 48.2248 33.2388C48.2415 33.2238 48.2591 33.2121 48.2775 33.2037C48.2959 33.1937 48.3151 33.1887 48.3352 33.1887ZM50.3906 34.0442H49.7132V30.4163H50.3906V34.0442ZM53.6716 32.6743L53.2301 31.4676C53.2083 31.414 53.1857 31.3505 53.1623 31.2769C53.1389 31.2033 53.1155 31.1238 53.0921 31.0385C53.0703 31.1238 53.0477 31.2041 53.0243 31.2794C53.0009 31.353 52.9783 31.4174 52.9566 31.4726L52.5175 32.6743H53.6716ZM54.8633 34.0442H54.3415C54.283 34.0442 54.2353 34.03 54.1985 34.0015C54.1617 33.9714 54.1341 33.9346 54.1157 33.8911L53.8447 33.151H52.3419L52.0709 33.8911C52.0576 33.9296 52.0316 33.9647 51.9932 33.9965C51.9547 34.0283 51.907 34.0442 51.8502 34.0442H51.3233L52.7509 30.4163H53.4383L54.8633 34.0442ZM57.9159 33.4872V34.0442H55.7908V30.4163H56.4657V33.4872H57.9159ZM62.9519 30.9708H61.8581V34.0442H61.1832V30.9708H60.0893V30.4163H62.9519V30.9708ZM64.656 30.9532V31.9593H65.9255V32.4786H64.656V33.5048H66.2667V34.0442H63.9786V30.4163H66.2667V30.9532H64.656ZM69.8297 33.1887C69.8665 33.1887 69.8991 33.2029 69.9276 33.2313L70.1935 33.5198C70.0463 33.7021 69.8649 33.8418 69.6491 33.9388C69.435 34.0358 69.1774 34.0843 68.8763 34.0843C68.6071 34.0843 68.3645 34.0383 68.1488 33.9463C67.9347 33.8543 67.7515 33.7264 67.5993 33.5625C67.4471 33.3986 67.33 33.2029 67.2481 32.9754C67.1678 32.7479 67.1276 32.4995 67.1276 32.2303C67.1276 31.9576 67.1711 31.7084 67.2581 31.4826C67.3451 31.2551 67.4672 31.0594 67.6244 30.8955C67.7833 30.7316 67.9723 30.6045 68.1914 30.5142C68.4105 30.4222 68.6531 30.3762 68.919 30.3762C69.1833 30.3762 69.4174 30.4197 69.6215 30.5066C69.8272 30.5936 70.002 30.7074 70.1458 30.8479L69.92 31.1615C69.9067 31.1815 69.8891 31.1991 69.8674 31.2142C69.8473 31.2292 69.8189 31.2367 69.7821 31.2367C69.757 31.2367 69.731 31.23 69.7043 31.2167C69.6775 31.2016 69.6483 31.184 69.6165 31.164C69.5847 31.1422 69.5479 31.1188 69.5061 31.0937C69.4643 31.0686 69.4158 31.0461 69.3606 31.026C69.3054 31.0042 69.241 30.9867 69.1674 30.9733C69.0955 30.9582 69.0118 30.9507 68.9165 30.9507C68.7542 30.9507 68.6054 30.98 68.4699 31.0385C68.3361 31.0954 68.2207 31.179 68.1237 31.2894C68.0267 31.3981 67.9514 31.532 67.8979 31.6908C67.8444 31.8481 67.8176 32.0279 67.8176 32.2303C67.8176 32.4343 67.846 32.6158 67.9029 32.7747C67.9614 32.9336 68.04 33.0674 68.1387 33.1761C68.2374 33.2848 68.3537 33.3685 68.4875 33.427C68.6213 33.4839 68.7651 33.5123 68.919 33.5123C69.011 33.5123 69.0938 33.5073 69.1674 33.4973C69.2426 33.4872 69.3112 33.4713 69.3731 33.4496C69.4367 33.4278 69.496 33.4002 69.5512 33.3668C69.6081 33.3317 69.6641 33.289 69.7193 33.2388C69.7361 33.2238 69.7536 33.2121 69.772 33.2037C69.7904 33.1937 69.8097 33.1887 69.8297 33.1887ZM74.2661 30.4163V34.0442H73.5887V32.4586H71.8852V34.0442H71.2078V30.4163H71.8852V31.9769H73.5887V30.4163H74.2661ZM78.6843 30.4163V34.0442H78.3381C78.2846 34.0442 78.2394 34.0358 78.2026 34.0191C78.1675 34.0007 78.1332 33.9706 78.0997 33.9288L76.2055 31.5102C76.2156 31.6206 76.2206 31.7226 76.2206 31.8163V34.0442H75.626V30.4163H75.9797C76.0082 30.4163 76.0324 30.418 76.0525 30.4213C76.0742 30.423 76.0926 30.428 76.1077 30.4364C76.1244 30.4431 76.1403 30.454 76.1554 30.469C76.1704 30.4824 76.1871 30.5008 76.2055 30.5242L78.1073 32.9528C78.1023 32.8943 78.0981 32.8366 78.0947 32.7797C78.0914 32.7228 78.0897 32.6702 78.0897 32.6216V30.4163H78.6843ZM83.5039 32.2303C83.5039 32.4962 83.4596 32.7429 83.371 32.9704C83.284 33.1962 83.1602 33.3919 82.9997 33.5575C82.8391 33.7231 82.6459 33.8527 82.4201 33.9463C82.1943 34.0383 81.9434 34.0843 81.6674 34.0843C81.3931 34.0843 81.1431 34.0383 80.9173 33.9463C80.6915 33.8527 80.4975 33.7231 80.3352 33.5575C80.1746 33.3919 80.05 33.1962 79.9614 32.9704C79.8727 32.7429 79.8284 32.4962 79.8284 32.2303C79.8284 31.9643 79.8727 31.7184 79.9614 31.4926C80.05 31.2652 80.1746 31.0686 80.3352 30.9031C80.4975 30.7375 80.6915 30.6087 80.9173 30.5167C81.1431 30.423 81.3931 30.3762 81.6674 30.3762C81.8514 30.3762 82.0245 30.3979 82.1868 30.4414C82.349 30.4832 82.4979 30.5434 82.6334 30.6221C82.7688 30.699 82.8901 30.7935 82.9971 30.9056C83.1059 31.016 83.1979 31.1397 83.2731 31.2769C83.3484 31.414 83.4053 31.5629 83.4437 31.7235C83.4839 31.884 83.5039 32.053 83.5039 32.2303ZM82.814 32.2303C82.814 32.0312 82.7872 31.8531 82.7337 31.6959C82.6802 31.537 82.6041 31.4023 82.5054 31.2919C82.4067 31.1815 82.2863 31.0971 82.1441 31.0385C82.0036 30.98 81.8447 30.9507 81.6674 30.9507C81.4901 30.9507 81.3304 30.98 81.1882 31.0385C81.0477 31.0971 80.9273 31.1815 80.827 31.2919C80.7283 31.4023 80.6522 31.537 80.5986 31.6959C80.5451 31.8531 80.5184 32.0312 80.5184 32.2303C80.5184 32.4293 80.5451 32.6083 80.5986 32.7672C80.6522 32.9244 80.7283 33.0582 80.827 33.1686C80.9273 33.2773 81.0477 33.3609 81.1882 33.4195C81.3304 33.478 81.4901 33.5073 81.6674 33.5073C81.8447 33.5073 82.0036 33.478 82.1441 33.4195C82.2863 33.3609 82.4067 33.2773 82.5054 33.1686C82.6041 33.0582 82.6802 32.9244 82.7337 32.7672C82.7872 32.6083 82.814 32.4293 82.814 32.2303ZM86.7736 33.4872V34.0442H84.6486V30.4163H85.3235V33.4872H86.7736ZM91.1398 32.2303C91.1398 32.4962 91.0955 32.7429 91.0068 32.9704C90.9199 33.1962 90.7961 33.3919 90.6355 33.5575C90.4749 33.7231 90.2818 33.8527 90.056 33.9463C89.8302 34.0383 89.5793 34.0843 89.3033 34.0843C89.029 34.0843 88.7789 34.0383 88.5531 33.9463C88.3273 33.8527 88.1333 33.7231 87.9711 33.5575C87.8105 33.3919 87.6859 33.1962 87.5972 32.9704C87.5086 32.7429 87.4643 32.4962 87.4643 32.2303C87.4643 31.9643 87.5086 31.7184 87.5972 31.4926C87.6859 31.2652 87.8105 31.0686 87.9711 30.9031C88.1333 30.7375 88.3273 30.6087 88.5531 30.5167C88.7789 30.423 89.029 30.3762 89.3033 30.3762C89.4873 30.3762 89.6604 30.3979 89.8226 30.4414C89.9849 30.4832 90.1337 30.5434 90.2692 30.6221C90.4047 30.699 90.526 30.7935 90.633 30.9056C90.7417 31.016 90.8337 31.1397 90.909 31.2769C90.9843 31.414 91.0411 31.5629 91.0796 31.7235C91.1197 31.884 91.1398 32.053 91.1398 32.2303ZM90.4499 32.2303C90.4499 32.0312 90.4231 31.8531 90.3696 31.6959C90.3161 31.537 90.2399 31.4023 90.1413 31.2919C90.0426 31.1815 89.9222 31.0971 89.78 31.0385C89.6395 30.98 89.4806 30.9507 89.3033 30.9507C89.126 30.9507 88.9663 30.98 88.8241 31.0385C88.6836 31.0971 88.5632 31.1815 88.4628 31.2919C88.3641 31.4023 88.288 31.537 88.2345 31.6959C88.181 31.8531 88.1542 32.0312 88.1542 32.2303C88.1542 32.4293 88.181 32.6083 88.2345 32.7672C88.288 32.9244 88.3641 33.0582 88.4628 33.1686C88.5632 33.2773 88.6836 33.3609 88.8241 33.4195C88.9663 33.478 89.126 33.5073 89.3033 33.5073C89.4806 33.5073 89.6395 33.478 89.78 33.4195C89.9222 33.3609 90.0426 33.2773 90.1413 33.1686C90.2399 33.0582 90.3161 32.9244 90.3696 32.7672C90.4231 32.6083 90.4499 32.4293 90.4499 32.2303ZM95.2751 32.2252V33.6929C95.0911 33.8284 94.8945 33.9279 94.6855 33.9915C94.4781 34.0534 94.2556 34.0843 94.0181 34.0843C93.722 34.0843 93.4536 34.0383 93.2127 33.9463C92.9736 33.8543 92.7687 33.7264 92.5981 33.5625C92.4291 33.3986 92.2987 33.2029 92.2067 32.9754C92.1147 32.7479 92.0687 32.4995 92.0687 32.2303C92.0687 31.9576 92.113 31.7076 92.2017 31.4801C92.2903 31.2526 92.4157 31.0569 92.578 30.893C92.7419 30.7291 92.9401 30.602 93.1726 30.5117C93.4051 30.4213 93.666 30.3762 93.9554 30.3762C94.1026 30.3762 94.2397 30.3879 94.3668 30.4113C94.4956 30.4347 94.6144 30.4673 94.7231 30.5092C94.8335 30.5493 94.9338 30.5986 95.0242 30.6572C95.1145 30.7157 95.1973 30.7801 95.2725 30.8504L95.0794 31.1565C95.0492 31.205 95.0099 31.2351 94.9614 31.2468C94.9129 31.2568 94.8602 31.2443 94.8034 31.2091C94.7482 31.1774 94.693 31.1456 94.6378 31.1138C94.5826 31.082 94.5207 31.0544 94.4521 31.031C94.3852 31.0076 94.3091 30.9884 94.2238 30.9733C94.1402 30.9582 94.0432 30.9507 93.9328 30.9507C93.7538 30.9507 93.5916 30.9808 93.4461 31.041C93.3022 31.1013 93.1793 31.1874 93.0773 31.2995C92.9752 31.4115 92.8966 31.5462 92.8414 31.7034C92.7862 31.8606 92.7586 32.0362 92.7586 32.2303C92.7586 32.4377 92.7879 32.6233 92.8464 32.7872C92.9067 32.9495 92.9903 33.0875 93.0973 33.2012C93.206 33.3133 93.3365 33.3994 93.4887 33.4596C93.6409 33.5182 93.8107 33.5474 93.998 33.5474C94.1318 33.5474 94.2514 33.5332 94.3568 33.5048C94.4622 33.4763 94.565 33.4379 94.6654 33.3894V32.732H94.2088C94.1653 32.732 94.131 32.7203 94.1059 32.6969C94.0825 32.6718 94.0708 32.6417 94.0708 32.6066V32.2252H95.2751ZM97.9422 32.6392V34.0442H97.2698V32.6392L95.9476 30.4163H96.5422C96.6007 30.4163 96.6467 30.4305 96.6802 30.459C96.7153 30.4874 96.7446 30.5234 96.768 30.5669L97.4303 31.7787C97.4688 31.8506 97.5023 31.9183 97.5307 31.9819C97.5608 32.0454 97.5876 32.109 97.611 32.1726C97.6327 32.109 97.6578 32.0454 97.6862 31.9819C97.7147 31.9183 97.7473 31.8506 97.7841 31.7787L98.4439 30.5669C98.4623 30.5301 98.4899 30.4958 98.5267 30.464C98.5635 30.4322 98.6104 30.4163 98.6672 30.4163H99.2643L97.9422 32.6392Z" fill="black"/>
<path fill-rule="evenodd" clip-rule="evenodd" d="M27.1318 27.9056C30.6789 24.5047 32.8904 19.6988 32.8904 14.3718C32.8904 9.16593 30.7784 4.45782 27.3718 1.07227H38.7851C45.1673 1.07227 48.6775 5.0436 48.6775 10.9469C48.6775 14.2385 47.4365 16.886 45.0964 18.4603L48.7129 27.9056H38.6078L35.9486 20.1776H34.2821V27.9056H27.1318ZM38.6787 11.1974C38.6787 9.83782 38.0759 8.69293 36.3386 8.69293H34.2821V13.7734H36.374C38.0759 13.7734 38.6787 12.5927 38.6787 11.1974Z" fill="black"/>
<path d="M13.3187 9.14936V0C6.20398 0.527661 0.522925 6.26017 0 13.4393H9.06723C9.49584 11.2815 11.1803 9.58153 13.319 9.14904L13.3187 9.14936Z" fill="#2F3F4C"/>
<path d="M19.7159 13.4393H28.7831C28.2602 6.26017 22.5792 0.527662 15.4645 0V9.14936C17.6029 9.58185 19.2876 11.2815 19.7162 13.4396L19.7159 13.4393Z" fill="#0063F2"/>
<path d="M9.06723 15.6049H0C0.522925 22.784 6.20398 28.5165 13.3187 29.0442V19.8948C11.1803 19.4623 9.49553 17.7626 9.06692 15.6046L9.06723 15.6049Z" fill="#84B94A"/>
<path d="M15.4648 19.8948V29.0442C22.5795 28.5165 28.2605 22.784 28.7835 15.6049H19.7162C19.2876 17.7626 17.6032 19.4626 15.4645 19.8951L15.4648 19.8948Z" fill="#B78347"/>
</svg>
