<svg width="42" height="32" viewBox="0 0 42 32" fill="none" xmlns="http://www.w3.org/2000/svg">
<path d="M22.6735 8.40956C22.6735 6.07964 23.5733 4.07736 25.3728 2.40273C27.1003 0.800911 29.2956 0 31.9589 0C35.054 0 37.5013 1.09215 39.3008 3.27645C41.1003 5.46075 42 8.04551 42 11.0307C42 17.8021 40.1645 22.8988 36.4936 26.3208C32.8226 29.7429 28.7558 31.636 24.2931 32V24.5734C26.4524 24.3549 28.5039 23.4812 30.4473 21.9522C32.3188 20.4232 33.3265 18.4937 33.4704 16.1638C32.7506 16.5279 31.9589 16.7099 31.0951 16.7099C28.4319 16.7099 26.3805 15.9454 24.9409 14.4164C23.4293 12.8874 22.6735 10.8851 22.6735 8.40956ZM0 8.40956C0 6.07964 0.899742 4.07736 2.69923 2.40273C4.42673 0.800911 6.62211 0 9.28535 0C12.3805 0 14.8278 1.09215 16.6273 3.27645C18.3548 5.46075 19.2185 8.04551 19.2185 11.0307C19.2185 17.8021 17.419 22.8988 13.82 26.3208C10.1491 29.7429 6.08226 31.636 1.61954 32V24.5734C3.77892 24.3549 5.83033 23.4812 7.77378 21.9522C9.64524 20.4232 10.653 18.4937 10.7969 16.1638C10.0771 16.5279 9.28535 16.7099 8.42159 16.7099C5.75835 16.7099 3.70694 15.9454 2.26735 14.4164C0.755783 12.8874 0 10.8851 0 8.40956Z" fill="#BFCDFF"/>
</svg>
