<svg width="24" height="24" viewBox="0 0 24 24" fill="none" xmlns="http://www.w3.org/2000/svg">
<g clip-path="url(#clip0_1813_20606)">
<path d="M23.3384 19.9944H0.661218C0.452392 19.9944 0.283264 19.8251 0.283264 19.6164C0.283264 19.4078 0.452392 19.2385 0.661218 19.2385H23.3384C23.5472 19.2385 23.7164 19.4078 23.7164 19.6164C23.7164 19.8251 23.5472 19.9944 23.3384 19.9944Z" fill="#194BFB" stroke="#194BFB" stroke-width="0.6"/>
<path d="M4.94043 19.9947C4.7316 19.9947 4.56247 19.8254 4.56247 19.6168V12.5989C4.56247 12.3227 4.33861 12.0989 4.06247 12.0989H2.48546C2.20932 12.0989 1.98546 12.3227 1.98546 12.5989V19.6168C1.98546 19.8254 1.81633 19.9947 1.60751 19.9947C1.39868 19.9947 1.22955 19.8254 1.22955 19.6168V11.7209C1.22955 11.5122 1.39868 11.343 1.60751 11.343H4.94043C5.14925 11.343 5.31838 11.5122 5.31838 11.7209V19.6168C5.31838 19.8254 5.14925 19.9947 4.94043 19.9947Z" fill="#194BFB" stroke="#194BFB" stroke-width="0.6"/>
<path d="M10.7578 19.995C10.549 19.995 10.3799 19.8257 10.3799 19.6171V8.22813C10.3799 7.95199 10.156 7.72814 9.87986 7.72814H8.30284C8.0267 7.72814 7.80284 7.95199 7.80284 8.22813V19.6171C7.80284 19.8257 7.63371 19.995 7.42489 19.995C7.21606 19.995 7.04694 19.8257 7.04694 19.6171V7.35018C7.04694 7.14152 7.21606 6.97223 7.42489 6.97223H10.7578C10.9666 6.97223 11.1358 7.14152 11.1358 7.35018V19.6171C11.1357 19.8257 10.9666 19.995 10.7578 19.995Z" fill="#194BFB" stroke="#194BFB" stroke-width="0.6"/>
<path d="M16.5751 19.9946C16.3663 19.9946 16.1972 19.8253 16.1972 19.6167V9.56715C16.1972 9.29101 15.9733 9.06716 15.6972 9.06716H14.1202C13.844 9.06716 13.6202 9.29101 13.6202 9.56716V19.6167C13.6202 19.8253 13.451 19.9946 13.2422 19.9946C13.0334 19.9946 12.8643 19.8253 12.8643 19.6167V8.6892C12.8643 8.48054 13.0334 8.31125 13.2422 8.31125H16.5751C16.784 8.31125 16.9531 8.48054 16.9531 8.6892V19.6167C16.953 19.8253 16.784 19.9946 16.5751 19.9946Z" fill="#194BFB" stroke="#194BFB" stroke-width="0.6"/>
<path d="M22.3936 19.9946C22.1847 19.9946 22.0156 19.8253 22.0156 19.6166V5.25591C22.0156 4.97976 21.7917 4.75591 21.5156 4.75591H19.9386C19.6624 4.75591 19.4386 4.97976 19.4386 5.25591V19.6166C19.4386 19.8253 19.2695 19.9946 19.0606 19.9946C18.8518 19.9946 18.6827 19.8253 18.6827 19.6166V4.37795C18.6827 4.16929 18.8518 4 19.0606 4H22.3936C22.6024 4 22.7715 4.16929 22.7715 4.37795V19.6166C22.7715 19.8253 22.6023 19.9946 22.3936 19.9946Z" fill="#194BFB" stroke="#194BFB" stroke-width="0.6"/>
</g>
<defs>
<clipPath id="clip0_1813_20606">
<rect width="24" height="24" fill="white"/>
</clipPath>
</defs>
</svg>
